<?xml version="1.0" standalone="no"?>
<!DOCTYPE svg PUBLIC "-//W3C//DTD SVG 20010904//EN"
 "http://www.w3.org/TR/2001/REC-SVG-20010904/DTD/svg10.dtd">
<svg version="1.0" xmlns="http://www.w3.org/2000/svg"
 width="192.000000pt" height="192.000000pt" viewBox="0 0 192.000000 192.000000"
 preserveAspectRatio="xMidYMid meet">
<metadata>
Created by potrace 1.14, written by Peter Selinger 2001-2017
</metadata>
<g transform="translate(0.000000,192.000000) scale(0.100000,-0.100000)"
fill="#000000" stroke="none">
<path d="M800 1900 c0 -18 -7 -20 -60 -20 -53 0 -60 -2 -60 -20 0 -17 -7 -20
-40 -20 -33 0 -40 -3 -40 -20 0 -13 -7 -20 -20 -20 -13 0 -20 -7 -20 -20 0
-13 -7 -20 -20 -20 -13 0 -20 -7 -20 -20 0 -13 -7 -20 -20 -20 -13 0 -20 -7
-20 -20 0 -13 -7 -20 -20 -20 -13 0 -20 -7 -20 -20 0 -13 -7 -20 -20 -20 -18
0 -20 -7 -20 -60 0 -53 -2 -60 -20 -60 -19 0 -20 -7 -20 -220 0 -213 -1 -220
-20 -220 -18 0 -20 -7 -20 -80 0 -73 -2 -80 -20 -80 -17 0 -20 -7 -20 -40 0
-33 -3 -40 -20 -40 -18 0 -20 -7 -20 -60 0 -53 2 -60 20 -60 13 0 20 -7 20
-20 0 -13 7 -20 20 -20 13 0 20 -7 20 -20 0 -13 7 -20 20 -20 13 0 20 -7 20
-20 0 -13 -7 -20 -20 -20 -13 0 -20 -7 -20 -20 0 -13 -7 -20 -20 -20 -13 0
-20 -7 -20 -20 0 -18 7 -20 60 -20 53 0 60 2 60 20 0 13 7 20 20 20 13 0 20 7
20 20 0 13 7 20 20 20 17 0 20 -7 20 -40 0 -33 3 -40 20 -40 13 0 20 -7 20
-20 0 -13 7 -20 20 -20 17 0 20 -7 20 -40 0 -33 -3 -40 -20 -40 -18 0 -20 -7
-20 -60 0 -53 2 -60 20 -60 13 0 20 -7 20 -20 0 -13 7 -20 20 -20 13 0 20 -7
20 -20 0 -13 7 -20 20 -20 17 0 20 -7 20 -40 l0 -40 40 0 40 0 0 -40 c0 -33 3
-40 20 -40 13 0 20 -7 20 -20 0 -18 7 -20 80 -20 l80 0 0 40 0 40 40 0 40 0 0
-40 0 -40 80 0 c73 0 80 2 80 20 0 13 7 20 20 20 17 0 20 7 20 40 l0 40 40 0
40 0 0 40 c0 33 3 40 20 40 13 0 20 7 20 20 0 13 7 20 20 20 13 0 20 7 20 20
0 13 7 20 20 20 18 0 20 7 20 60 0 53 -2 60 -20 60 -13 0 -20 7 -20 20 0 13 7
20 20 20 13 0 20 7 20 20 0 13 7 20 20 20 13 0 20 7 20 20 0 13 7 20 20 20 17
0 20 7 20 40 0 33 3 40 20 40 13 0 20 -7 20 -20 0 -13 7 -20 20 -20 13 0 20
-7 20 -20 0 -18 7 -20 60 -20 53 0 60 2 60 20 0 13 -7 20 -20 20 -13 0 -20 7
-20 20 0 13 -7 20 -20 20 -13 0 -20 7 -20 20 0 13 7 20 20 20 13 0 20 7 20 20
0 13 7 20 20 20 18 0 20 7 20 60 0 53 -2 60 -20 60 -13 0 -20 7 -20 20 0 13
-7 20 -20 20 -19 0 -20 7 -20 120 0 113 -1 120 -20 120 -19 0 -20 7 -20 220 0
213 -1 220 -20 220 -18 0 -20 7 -20 60 0 53 -2 60 -20 60 -13 0 -20 7 -20 20
0 13 -7 20 -20 20 -13 0 -20 7 -20 20 0 13 -7 20 -20 20 -13 0 -20 7 -20 20 0
13 -7 20 -20 20 -13 0 -20 7 -20 20 0 13 -7 20 -20 20 -13 0 -20 7 -20 20 0
17 -7 20 -40 20 -33 0 -40 3 -40 20 0 18 -7 20 -60 20 -53 0 -60 2 -60 20 0
19 -7 20 -160 20 -153 0 -160 -1 -160 -20z m-120 -720 c0 -13 7 -20 20 -20 13
0 20 -7 20 -20 0 -13 7 -20 20 -20 13 0 20 7 20 20 0 13 7 20 20 20 13 0 20 7
20 20 0 13 7 20 20 20 13 0 20 -7 20 -20 0 -17 7 -20 40 -20 33 0 40 -3 40
-20 0 -19 7 -20 100 -20 93 0 100 1 100 20 0 13 7 20 20 20 13 0 20 -7 20 -20
0 -18 7 -20 60 -20 53 0 60 2 60 20 0 13 7 20 20 20 13 0 20 -7 20 -20 0 -13
7 -20 20 -20 17 0 20 -7 20 -40 0 -33 3 -40 20 -40 18 0 20 -7 20 -80 0 -73
-2 -80 -20 -80 -17 0 -20 -7 -20 -40 0 -33 -3 -40 -20 -40 -17 0 -20 -7 -20
-40 l0 -40 -40 0 c-33 0 -40 -3 -40 -20 0 -20 -7 -20 -280 -20 -273 0 -280 0
-280 20 0 17 -7 20 -40 20 l-40 0 0 40 c0 33 -3 40 -20 40 -17 0 -20 7 -20 40
0 33 -3 40 -20 40 -18 0 -20 7 -20 80 0 73 2 80 20 80 13 0 20 7 20 20 0 17 7
20 40 20 l40 0 0 60 c0 53 2 60 20 60 13 0 20 -7 20 -20z m-240 -440 c0 -13
-7 -20 -20 -20 -13 0 -20 7 -20 20 0 13 7 20 20 20 13 0 20 -7 20 -20z m1080
-20 c0 -33 -3 -40 -20 -40 -17 0 -20 7 -20 40 0 33 3 40 20 40 17 0 20 -7 20
-40z m-1000 -100 c0 -13 -7 -20 -20 -20 -13 0 -20 7 -20 20 0 13 7 20 20 20
13 0 20 -7 20 -20z m240 -40 c0 -53 -2 -60 -20 -60 -19 0 -20 -7 -20 -100 0
-93 -1 -100 -20 -100 -17 0 -20 -7 -20 -40 l0 -40 -40 0 c-33 0 -40 3 -40 20
0 13 -7 20 -20 20 -18 0 -20 7 -20 60 0 53 2 60 20 60 17 0 20 7 20 40 0 33 3
40 20 40 17 0 20 7 20 40 0 33 3 40 20 40 13 0 20 7 20 20 0 13 7 20 20 20 13
0 20 7 20 20 0 13 7 20 20 20 18 0 20 -7 20 -60z m120 20 l0 -40 -40 0 -40 0
0 40 0 40 40 0 40 0 0 -40z m120 20 c0 -17 -7 -20 -40 -20 -33 0 -40 3 -40 20
0 17 7 20 40 20 33 0 40 -3 40 -20z m120 -20 l0 -40 -40 0 -40 0 0 40 0 40 40
0 40 0 0 -40z m80 20 c0 -13 7 -20 20 -20 13 0 20 -7 20 -20 0 -13 7 -20 20
-20 13 0 20 7 20 20 0 13 7 20 20 20 13 0 20 -7 20 -20 0 -13 7 -20 20 -20 13
0 20 -7 20 -20 0 -13 -7 -20 -20 -20 -13 0 -20 7 -20 20 0 13 -7 20 -20 20
-17 0 -20 -7 -20 -40 0 -33 3 -40 20 -40 17 0 20 -7 20 -40 0 -33 3 -40 20
-40 18 0 20 -7 20 -60 0 -53 -2 -60 -20 -60 -13 0 -20 -7 -20 -20 0 -17 -7
-20 -40 -20 l-40 0 0 40 c0 33 -3 40 -20 40 -19 0 -20 7 -20 100 0 93 -1 100
-20 100 -18 0 -20 7 -20 60 0 53 2 60 20 60 13 0 20 -7 20 -20z m-320 -560 c0
-18 -7 -20 -60 -20 -53 0 -60 2 -60 20 0 18 7 20 60 20 53 0 60 -2 60 -20z
m280 0 c0 -18 -7 -20 -60 -20 -53 0 -60 2 -60 20 0 18 7 20 60 20 53 0 60 -2
60 -20z"/>
<path d="M640 1060 c0 -13 -7 -20 -20 -20 -13 0 -20 -7 -20 -20 0 -13 -7 -20
-20 -20 -18 0 -20 -7 -20 -60 0 -53 2 -60 20 -60 18 0 20 7 20 60 0 53 2 60
20 60 13 0 20 7 20 20 0 13 7 20 20 20 19 0 20 -7 20 -100 l0 -100 60 0 60 0
0 80 c0 73 2 80 20 80 13 0 20 7 20 20 0 13 -7 20 -20 20 -13 0 -20 7 -20 20
0 18 -7 20 -80 20 -73 0 -80 -2 -80 -20z"/>
<path d="M1120 1060 c0 -13 -7 -20 -20 -20 -13 0 -20 -7 -20 -20 0 -13 7 -20
20 -20 18 0 20 -7 20 -80 l0 -80 60 0 60 0 0 100 c0 93 1 100 20 100 13 0 20
-7 20 -20 0 -13 7 -20 20 -20 18 0 20 -7 20 -60 0 -53 2 -60 20 -60 18 0 20 7
20 60 0 53 -2 60 -20 60 -13 0 -20 7 -20 20 0 13 -7 20 -20 20 -13 0 -20 7
-20 20 0 18 -7 20 -80 20 -73 0 -80 -2 -80 -20z"/>
<path d="M880 940 c0 -93 1 -100 20 -100 13 0 20 -7 20 -20 0 -13 7 -20 20
-20 13 0 20 7 20 20 0 13 7 20 20 20 13 0 20 7 20 20 0 13 -7 20 -20 20 -13 0
-20 -7 -20 -20 0 -13 -7 -20 -20 -20 -19 0 -20 7 -20 100 0 93 -1 100 -20 100
-19 0 -20 -7 -20 -100z"/>
<path d="M1040 780 c0 -18 -7 -20 -80 -20 -73 0 -80 -2 -80 -20 0 -18 7 -20
80 -20 73 0 80 2 80 20 0 13 7 20 20 20 13 0 20 7 20 20 0 13 -7 20 -20 20
-13 0 -20 -7 -20 -20z"/>
</g>
</svg>
